<svg viewBox="0 0 140 140" xmlns="http://www.w3.org/2000/svg" fill-rule="evenodd" clip-rule="evenodd" stroke-linejoin="round" stroke-miterlimit="1.41421">
  <path fill="none" d="M0 0h140v140H0z"/>
  <clipPath id="a">
    <path d="M0 0h140v140H0z"/>
  </clipPath>
  <g clip-path="url(#a)">
    <path fill="#ffbf46" d="M0 0h140v140H0z"/>
    <path d="M69.689 12.5l49.796 28.75v57.5L69.689 127.5 19.892 98.75v-57.5L69.689 12.5z" fill="#fff"/>
    <path d="M122.105 40.155v59.69L69.683 129.67 17.896 99.839V40.161L69.683 10.33l52.422 29.825zM19.78 41.25v57.5l49.909 28.75 50.533-28.75v-57.5L69.689 12.5 19.78 41.25z"/>
    <path d="M69.689 12.5l50.533 28.75v57.5L69.689 127.5l49.909-28.75-.001-57.5L69.689 12.5zm0 0L19.78 41.25v57.5l49.909 28.75-15.183-8.746L19.78 98.75v-57.5L69.689 12.5zm-.083 112.731l-.558-.321L57.173 21.931l10.693-6.159 1.74 109.459zm12.599-103.3L70.33 124.91l-.558.321 1.74-109.459 10.693 6.159zm12.829 7.39l-23.826 95.083-.682.392L85.44 23.795l9.594 5.526zm-26.182 95.475l-.682-.392-23.826-95.083 9.594-5.526 14.914 101.001zM106.94 36.18l-34.598 87.571-.887.51 26.54-93.234 8.945 5.153zm-39.017 88.081l-.887-.51L32.438 36.18l8.945-5.153 26.54 93.234zm49.747-81.9v1.727l-43.745 78.75-1.251.721L109.752 37.8l7.918 4.561zM29.625 37.8l37.078 85.759-1.251-.721-43.744-78.75v-1.727l7.918-4.561zm88.043 27.933l-41.272 55.681-1.98 1.14 43.253-72.341-.001 15.52zm-52.709 56.821l-1.979-1.14-41.274-55.681.001-15.52 43.252 72.341zm52.71-41.697l-36.656 37.897-3.776 2.176 40.432-51.066-.001 10.993zm-55.53 40.073l-3.776-2.176-36.655-37.897V69.864L62.14 120.93zm55.53-28.568L93.468 111.58l-10.621 6.118 34.821-33.78v8.444zm-61.141 25.336l-10.62-6.118-24.201-19.218v-8.444l34.821 33.78zm61.141-20.059l-17.003 9.795 17.003-12.641v2.846zm-95.962-2.846l17.003 12.641-17.003-9.795v-2.846z"/>
    <path d="M46.742 37.192l16.991 9.824v19.65L46.742 76.49 29.75 66.666v-19.65l16.992-9.824z"/>
    <path d="M65.233 46.151v21.38L46.742 78.223 28.25 67.531v-21.38l18.492-10.692 18.491 10.692zm-35.483.865v19.65l16.992 9.824 16.991-9.824v-19.65l-16.991-9.824-16.992 9.824z" fill="#fff"/>
    <path d="M91.978 37.192l16.991 9.824v19.65L91.978 76.49l-16.992-9.824v-19.65l16.992-9.824z"/>
    <path d="M110.469 46.151v21.38L91.978 78.223 73.486 67.531v-21.38l18.492-10.692 18.491 10.692zm-35.483.865v19.65l16.992 9.824 16.991-9.824v-19.65l-16.991-9.824-16.992 9.824z" fill="#fff"/>
    <path d="M69.689 76.49l16.992 9.825v19.649l-16.992 9.825-16.992-9.825V86.315l16.992-9.825z"/>
    <path d="M88.181 85.45v21.38l-18.492 10.692-18.492-10.692V85.45l18.492-10.692L88.181 85.45zm-35.484.865v19.649l16.992 9.825 16.992-9.825V86.315L69.689 76.49l-16.992 9.825z" fill="#fff"/>
  </g>
</svg>
