<?xml version="1.0" encoding="UTF-8"?>
<svg xmlns="http://www.w3.org/2000/svg" width="1200" height="630" viewBox="0 0 1200 630" role="img" aria-label="Civilization Battle Royale — Latest Episode">
  <defs>
    <linearGradient id="bg" x1="0" y1="0" x2="1" y2="1">
      <stop offset="0%" stop-color="#0b0b0b" />
      <stop offset="55%" stop-color="#1b1508" />
      <stop offset="100%" stop-color="#2b1f0d" />
    </linearGradient>
    <linearGradient id="glow" x1="0" y1="0" x2="0" y2="1">
      <stop offset="0%" stop-color="rgba(255,191,70,0.3)" />
      <stop offset="80%" stop-color="rgba(255,191,70,0)" />
    </linearGradient>
    <linearGradient id="imageOverlay" x1="0" y1="0" x2="1" y2="1">
      <stop offset="0%" stop-color="rgba(0,0,0,0.25)" />
      <stop offset="100%" stop-color="rgba(0,0,0,0.55)" />
    </linearGradient>
    <filter id="shadow" x="-20%" y="-20%" width="140%" height="140%">
      <feDropShadow dx="0" dy="12" stdDeviation="18" flood-color="rgba(0,0,0,0.55)" />
    </filter>
    <clipPath id="imageClip">
      <rect x="510" y="55" width="640" height="520" rx="28" ry="28" />
    </clipPath>
    <pattern id="grid" width="145.492" height="126.000" patternUnits="userSpaceOnUse">
      <path d="M36.373 0.000 L72.746 21.000 L72.746 63.000 L36.373 84.000 L0.000 63.000 L0.000 21.000 Z" fill="none" stroke="rgba(255,255,255,0.05)" stroke-width="1" />
      <path d="M109.119 0.000 L145.492 21.000 L145.492 63.000 L109.119 84.000 L72.746 63.000 L72.746 21.000 Z" fill="none" stroke="rgba(255,255,255,0.05)" stroke-width="1" />
      <path d="M72.746 63.000 L109.119 84.000 L109.119 126.000 L72.746 147.000 L36.373 126.000 L36.373 84.000 Z" fill="none" stroke="rgba(255,255,255,0.05)" stroke-width="1" />
      <path d="M145.492 63.000 L181.865 84.000 L181.865 126.000 L145.492 147.000 L109.119 126.000 L109.119 84.000 Z" fill="none" stroke="rgba(255,255,255,0.05)" stroke-width="1" />
    </pattern>
  </defs>
  <style>
    
    .title {
      font-family: "Teko","Teko","Impact",sans-serif;
      font-size: 48px;
      font-weight: 600;
      letter-spacing: 0.01em;
      line-height: 1.2;
      fill: #ffffff;
    }
    .kicker {
      font-family: "Teko","Teko","Impact",sans-serif;
      font-size: 26px;
      text-transform: uppercase;
      letter-spacing: 0.22em;
      fill: #ffbf46;
    }
    .meta {
      font-family: "Teko","Teko","Impact",sans-serif;
      font-size: 26px;
      fill: rgba(255,255,255,0.75);
      letter-spacing: 0.1em;
      text-transform: uppercase;
    }
    .site {
      font-family: "Teko","Teko","Impact",sans-serif;
      font-size: 22px;
      fill: rgba(255,255,255,0.65);
      letter-spacing: 0.2em;
      text-transform: uppercase;
    }
    .brand {
      font-family: "Teko","Teko","Impact",sans-serif;
      font-size: 26px;
      letter-spacing: 0.18em;
      fill: rgba(255,255,255,0.9);
      text-transform: uppercase;
    }
  </style>
  <rect width="100%" height="100%" fill="url(#bg)" />
  <rect width="100%" height="100%" fill="url(#grid)" opacity="0.6" />
  <rect x="0" y="0" width="100%" height="315" fill="url(#glow)" />
  <text class="brand" x="50" y="86">Civilization Battle Royale</text>

  <text class="kicker" x="50" y="121">Latest Episode</text>
  <text class="title" x="50" y="201" dominant-baseline="hanging">
    <tspan x="50" dy="0">Episode 5: The</tspan><tspan x="50" dy="55">Call Of The Land</tspan>
  </text>
  <text class="meta" x="50" y="311">S5 • February 17, 2026</text>
  <text class="site" x="50" y="560">civbattleroyale.tv</text>

  
</svg>
