<svg viewBox="0 0 125 125" xmlns="http://www.w3.org/2000/svg" fill-rule="evenodd" clip-rule="evenodd" stroke-linejoin="round" stroke-miterlimit="1.41421"><path d="M114.916 32.655v59.69L62.494 122.17 10.707 92.339V32.661L62.494 2.83l52.422 29.825zM12.591 33.75v57.5L62.5 120l50.533-28.75v-57.5L62.5 5 12.591 33.75z"/><path d="M62.5 5l50.533 28.75v57.5L62.5 120l49.909-28.75v-57.5L62.5 5zm0 0L12.591 33.75v57.5L62.5 120l-15.183-8.746L12.591 91.25v-57.5L62.5 5zm-.083 112.731l-.558-.321L49.984 14.431l10.693-6.159 1.74 109.459zm12.599-103.3L63.141 117.41l-.558.321 1.74-109.459 10.693 6.159zm12.829 7.39l-23.826 95.083-.682.392L78.251 16.295l9.594 5.526zm-26.182 95.475l-.682-.392-23.826-95.083 9.594-5.526 14.914 101.001zM99.751 28.68l-34.598 87.571-.887.51 26.54-93.234 8.945 5.153zm-39.017 88.081l-.887-.51L25.249 28.68l8.945-5.153 26.54 93.234zm49.747-81.9v1.727l-43.745 78.75-1.25.721L102.563 30.3l7.918 4.561zM22.437 30.3l37.077 85.759-1.25-.721-43.745-78.75v-1.727l7.918-4.561zm88.044 27.933l-41.273 55.681-1.979 1.14 43.252-72.341v15.52zm-52.71 56.821l-1.979-1.14-41.273-55.681v-15.52l43.252 72.341zm52.71-41.697l-36.655 37.897-3.777 2.176 40.432-51.066v10.993zm-55.53 40.073l-3.777-2.176-36.655-37.897V62.364l40.432 51.066zm55.53-28.568L86.28 104.08l-10.62 6.118 34.821-33.78v8.444zM49.34 110.198l-10.62-6.118-24.201-19.218v-8.444l34.821 33.78zm61.141-20.059l-17.003 9.795 17.003-12.641v2.846zm-95.962-2.846l17.003 12.641-17.003-9.795v-2.846z"/><path d="M39.553 29.692l16.991 9.824v19.65L39.553 68.99l-16.992-9.824v-19.65l16.992-9.824z"/><path d="M58.044 38.651v21.38L39.553 70.723 21.061 60.031v-21.38l18.492-10.692 18.491 10.692zm-35.483.865v19.65l16.992 9.824 16.991-9.824v-19.65l-16.991-9.824-16.992 9.824z" fill="#fff"/><path d="M84.789 29.692l16.991 9.824v19.65L84.789 68.99l-16.992-9.824v-19.65l16.992-9.824z"/><path d="M103.28 38.651v21.38L84.789 70.723 66.297 60.031v-21.38l18.492-10.692 18.491 10.692zm-35.483.865v19.65l16.992 9.824 16.991-9.824v-19.65l-16.991-9.824-16.992 9.824z" fill="#fff"/><path d="M62.5 68.99l16.992 9.825v19.649L62.5 108.289l-16.992-9.825V78.815L62.5 68.99z"/><path d="M80.992 77.95v21.38L62.5 110.022 44.008 99.33V77.95L62.5 67.258 80.992 77.95zm-35.484.865v19.649l16.992 9.825 16.992-9.825V78.815L62.5 68.99l-16.992 9.825z" fill="#fff"/></svg>