<?xml version="1.0" standalone="no"?>
<!DOCTYPE svg PUBLIC "-//W3C//DTD SVG 20010904//EN"
 "http://www.w3.org/TR/2001/REC-SVG-20010904/DTD/svg10.dtd">
<svg version="1.0" xmlns="http://www.w3.org/2000/svg"
 width="700.000000pt" height="700.000000pt" viewBox="0 0 700.000000 700.000000"
 preserveAspectRatio="xMidYMid meet">
<metadata>
Created by potrace 1.11, written by Peter Selinger 2001-2013
</metadata>
<g transform="translate(0.000000,700.000000) scale(0.100000,-0.100000)"
fill="#000000" stroke="none">
<path d="M2050 6008 l-1445 -833 0 -1674 0 -1675 1447 -833 1448 -834 1470
837 1470 836 -2 1670 -3 1670 -870 495 c-478 272 -1134 645 -1456 829 -322
183 -592 336 -600 339 -8 3 -664 -370 -1459 -827z m1766 531 c166 -96 790
-455 1387 -799 l1086 -625 0 -1615 0 -1615 -487 -279 c-268 -154 -748 -430
-1067 -614 -319 -184 -727 -420 -907 -523 l-327 -189 -1395 803 -1395 802 0
1615 0 1615 1392 802 c766 441 1397 800 1402 799 6 -2 146 -82 311 -177z"/>
<path d="M3095 6363 c-160 -91 -291 -167 -293 -168 -5 -4 126 -1123 132 -1133
3 -5 82 -53 176 -107 l170 -98 -2 -620 -3 -620 -82 -49 c-53 -31 -83 -55 -83
-66 1 -38 48 -413 53 -418 3 -3 69 31 146 76 141 82 141 82 141 119 0 20 -11
718 -25 1551 -14 833 -25 1557 -25 1608 0 50 -4 92 -8 92 -4 0 -138 -75 -297
-167z"/>
<path d="M3600 6444 c0 -49 -11 -771 -25 -1604 -14 -833 -25 -1534 -25 -1556
l0 -42 141 -82 c77 -45 143 -79 146 -76 10 10 53 410 46 417 -5 4 -51 32 -103
62 l-95 55 -3 619 -2 618 191 110 c112 64 195 118 199 130 9 21 134 1095 128
1100 -14 10 -567 325 -580 331 -16 6 -18 -2 -18 -82z"/>
<path d="M2343 5932 c-138 -81 -254 -149 -257 -152 -4 -5 71 -320 78 -328 2
-1 15 2 28 9 23 10 49 -3 287 -141 144 -84 265 -150 268 -147 3 4 -22 194 -56
424 -75 510 -71 483 -85 482 -6 0 -124 -67 -263 -147z"/>
<path d="M4380 6075 c0 -2 -29 -201 -65 -441 -36 -241 -63 -439 -61 -441 2 -2
102 52 221 122 300 174 269 160 312 135 20 -12 39 -17 43 -13 12 14 89 338 82
344 -14 13 -514 299 -523 299 -5 0 -9 -2 -9 -5z"/>
<path d="M1665 5540 c-132 -77 -241 -143 -243 -148 -5 -15 110 -302 121 -302
21 0 467 265 463 275 -2 6 -23 79 -47 163 -23 84 -45 152 -48 151 -3 0 -114
-63 -246 -139z"/>
<path d="M5036 5510 c-27 -94 -46 -173 -43 -176 10 -11 450 -264 458 -264 7 0
129 300 129 319 0 7 -480 291 -493 291 -2 0 -25 -77 -51 -170z"/>
<path d="M2194 5326 c-10 -7 -138 -82 -284 -166 -146 -84 -352 -202 -458 -264
l-193 -111 4 -549 3 -549 184 -107 c102 -58 314 -181 473 -273 158 -92 289
-167 292 -167 2 0 188 106 412 237 224 130 437 253 473 273 l65 38 3 549 2
549 -192 110 c-232 133 -691 399 -734 425 -26 16 -33 16 -50 5z"/>
<path d="M4465 5173 c-149 -86 -358 -207 -465 -268 l-195 -112 -3 -554 -2
-554 72 -41 c40 -22 241 -138 447 -258 206 -120 388 -224 403 -232 32 -17 -1
-34 583 306 149 86 298 172 332 191 l63 34 0 552 0 551 -57 33 c-32 17 -78 43
-103 57 -25 14 -76 44 -115 67 -38 23 -194 113 -345 200 -151 87 -284 164
-295 171 -11 8 -26 14 -35 14 -8 0 -137 -70 -285 -157z"/>
<path d="M1028 5173 l-218 -126 0 -45 c0 -39 20 -81 168 -346 l167 -301 5 252
5 253 115 66 c63 37 116 67 117 69 5 3 -130 305 -136 304 -3 0 -104 -57 -223
-126z"/>
<path d="M5676 5148 c-36 -84 -66 -157 -66 -163 0 -5 46 -37 103 -70 l102 -60
5 -278 5 -277 183 328 c160 290 182 334 182 374 l0 45 -220 126 c-121 70 -221
127 -223 127 -2 0 -34 -69 -71 -152z"/>
<path d="M810 4172 l0 -429 808 -1089 807 -1089 3 169 2 169 -446 746 -446
746 -191 110 -192 111 -5 219 -5 220 -163 273 c-90 149 -166 272 -168 272 -2
0 -4 -193 -4 -428z"/>
<path d="M6001 4298 l-181 -303 0 -187 0 -186 -170 -99 -171 -98 -454 -760
-455 -760 0 -173 0 -174 244 329 c134 180 498 672 810 1092 l566 765 0 428 c0
235 -2 428 -4 428 -2 0 -86 -136 -185 -302z"/>
<path d="M810 3200 l0 -305 1028 -1063 1029 -1063 94 -54 c51 -29 95 -52 97
-50 9 8 -563 716 -594 735 -22 14 -34 29 -34 44 0 14 -281 377 -791 1021 -435
550 -800 1009 -810 1020 -19 19 -19 14 -19 -285z"/>
<path d="M6072 3363 c-1097 -1383 -1502 -1900 -1502 -1919 0 -15 -12 -30 -34
-44 -31 -19 -603 -727 -594 -735 2 -2 45 21 97 50 l94 54 1029 1063 1028 1063
0 303 c0 166 -2 302 -5 302 -2 0 -53 -62 -113 -137z"/>
<path d="M2865 3379 c-77 -44 -144 -84 -149 -89 -9 -9 80 -387 95 -404 6 -7
259 129 259 140 0 6 -60 406 -63 421 -1 7 -60 -21 -142 -68z"/>
<path d="M3990 3436 c0 -3 -13 -96 -30 -206 -16 -110 -30 -202 -30 -204 0 -11
253 -147 259 -140 5 5 27 86 50 179 23 94 44 177 47 186 3 13 -23 33 -108 82
-62 35 -130 75 -150 87 -21 12 -38 19 -38 16z"/>
<path d="M5010 3155 c-135 -79 -248 -145 -252 -147 -5 -2 -48 -97 -98 -211
l-90 -208 2 -270 3 -269 315 567 c173 312 330 593 347 625 18 32 29 58 25 57
-4 0 -117 -65 -252 -144z"/>
<path d="M1776 3219 c16 -30 169 -305 339 -612 l310 -557 3 267 3 268 -93 216
c-75 175 -96 215 -108 209 -10 -5 -71 24 -192 95 -98 57 -203 118 -234 136
l-57 32 29 -54z"/>
<path d="M2540 3191 c-36 -21 -97 -57 -136 -79 l-72 -42 74 -186 c40 -102 75
-189 78 -191 9 -9 246 131 242 142 -2 6 -27 93 -56 195 -29 102 -55 188 -59
192 -3 4 -36 -10 -71 -31z"/>
<path d="M4371 3173 c-6 -21 -31 -108 -55 -193 -25 -85 -44 -155 -43 -156 25
-16 217 -125 228 -129 14 -5 30 26 88 176 39 100 70 183 69 184 -11 8 -269
155 -272 155 -3 0 -10 -17 -15 -37z"/>
<path d="M3360 3056 c-69 -40 -213 -123 -320 -186 -107 -62 -261 -151 -342
-197 l-148 -84 0 -552 0 -552 227 -130 c125 -71 270 -155 322 -186 327 -190
387 -223 401 -223 14 0 74 33 401 223 52 31 197 115 322 186 l227 130 0 552 0
552 -147 84 c-82 46 -220 126 -308 177 -377 219 -486 280 -498 279 -6 0 -68
-33 -137 -73z"/>
<path d="M812 2486 l3 -239 676 -537 675 -536 270 -156 c148 -85 280 -161 294
-168 31 -15 138 -120 -875 860 -462 447 -886 858 -943 914 l-102 101 2 -239z"/>
<path d="M5380 1938 c-443 -429 -879 -853 -970 -941 -91 -88 -154 -154 -140
-147 14 7 146 83 295 168 l269 156 678 539 678 538 0 235 c0 129 -1 234 -2
234 -2 0 -365 -352 -808 -782z"/>
<path d="M810 2033 l0 -79 407 -234 c525 -303 511 -295 493 -277 -14 14 -860
644 -887 661 -10 5 -13 -11 -13 -71z"/>
<path d="M5744 1784 c-241 -179 -446 -333 -454 -341 -18 -18 -32 -26 493 277
l407 234 0 78 c0 43 -1 78 -3 78 -2 0 -201 -147 -443 -326z"/>
<path d="M2620 1307 c0 -11 501 -681 518 -692 48 -32 95 -58 90 -49 -3 5 -84
142 -181 305 l-176 296 -103 58 c-57 32 -113 65 -125 73 -13 8 -23 12 -23 9z"/>
<path d="M4252 1237 l-123 -70 -176 -296 c-97 -163 -178 -300 -181 -305 -5 -9
42 17 90 49 18 12 521 685 516 690 -2 1 -58 -29 -126 -68z"/>
<path d="M3031 958 c50 -89 123 -221 161 -291 52 -94 78 -132 100 -143 16 -9
31 -14 33 -12 1 2 -48 119 -110 261 l-112 259 -69 40 c-38 22 -74 42 -81 45
-7 3 29 -69 78 -159z"/>
<path d="M3970 1075 l-74 -44 -112 -258 c-61 -142 -110 -259 -109 -261 2 -2
16 3 32 11 22 12 65 81 190 306 89 160 158 291 155 291 -4 -1 -41 -21 -82 -45z"/>
<path d="M3171 948 c160 -407 182 -459 201 -469 11 -6 21 -9 23 -7 5 6 -126
452 -137 465 -9 11 -95 63 -104 63 -2 0 6 -24 17 -52z"/>
<path d="M3797 975 c-21 -12 -45 -29 -52 -36 -13 -13 -146 -460 -140 -467 2
-2 12 1 23 7 19 10 41 62 201 469 11 28 17 52 13 51 -4 0 -24 -11 -45 -24z"/>
<path d="M3304 893 c3 -10 28 -110 56 -223 46 -185 69 -245 85 -228 10 10 -55
422 -68 430 -21 15 -66 38 -72 38 -4 0 -4 -8 -1 -17z"/>
<path d="M3650 889 c-19 -12 -36 -22 -37 -23 -6 -6 -63 -419 -58 -424 16 -17
39 43 85 228 28 113 53 213 56 223 7 22 -3 22 -46 -4z"/>
<path d="M3420 827 c0 -57 44 -393 52 -404 6 -7 18 -13 28 -13 10 0 22 6 28
13 8 11 52 347 52 404 l0 22 -35 -20 -35 -21 0 -189 c0 -119 -4 -189 -10 -189
-6 0 -10 70 -10 189 l0 189 -35 21 -35 20 0 -22z"/>
</g>
</svg>
